<?xml version="1.0" encoding="UTF-8"?>
<svg id="Calque_2" data-name="Calque 2" xmlns="http://www.w3.org/2000/svg" xmlns:xlink="http://www.w3.org/1999/xlink" viewBox="0 0 93.66 124.48">
  <defs>
    <style>
      .cls-1 {
        fill: #7b7365;
      }

      .cls-1, .cls-2, .cls-3, .cls-4, .cls-5, .cls-6, .cls-7, .cls-8, .cls-9, .cls-10, .cls-11, .cls-12, .cls-13 {
        stroke-width: 0px;
      }

      .cls-2, .cls-14 {
        fill: #c4bfb3;
      }

      .cls-3 {
        fill: #ccc7bb;
      }

      .cls-15 {
        clip-path: url(#clippath-2);
      }

      .cls-4 {
        fill: #b9b5a7;
      }

      .cls-5 {
        fill: #b7b4a7;
      }

      .cls-16 {
        clip-path: url(#clippath-1);
      }

      .cls-6 {
        fill: #a9a397;
      }

      .cls-7 {
        fill: #a9a396;
      }

      .cls-17 {
        clip-path: url(#clippath);
      }

      .cls-18, .cls-10 {
        fill: #c7c3b7;
      }

      .cls-8 {
        fill: #4d483c;
      }

      .cls-9 {
        fill: #86806e;
      }

      .cls-11 {
        fill: #555042;
      }

      .cls-12 {
        fill: #030202;
      }

      .cls-13 {
        fill: #696258;
      }
    </style>
    <clipPath id="clippath">
      <path class="cls-10" d="M20.9,83.84l-8.03,17.97v18.48l10.11,3.51c1.49.52,3.13.28,4.42-.63l15.46-11c1.94-1.38,4.56-1.34,6.46.09l4.43,3.35,10.68,8.08c1,.75,2.29.99,3.49.65l11.47-3.28.89-16.95-7.01-19.11-12.68-11.98-9.75-.57h-8.03s-9.75.57-9.75.57l-12.17,10.83Z"/>
    </clipPath>
    <clipPath id="clippath-1">
      <polygon class="cls-2" points="23.32 81.61 3.06 34.69 0 13 4.97 0 16.25 3.25 30.1 23.22 42.81 72.44 33.07 73.01 23.32 81.61"/>
    </clipPath>
    <clipPath id="clippath-2">
      <polygon class="cls-2" points="70.1 82.01 90.6 34.69 93.66 13 88.69 0 77.41 3.25 63.55 23.22 50.84 72.44 60.59 73.01 70.1 82.01"/>
    </clipPath>
  </defs>
  <g id="Calque_1-2" data-name="Calque 1">
    <g>
      <g>
        <path class="cls-18" d="M20.9,83.84l-8.03,17.97v18.48l10.11,3.51c1.49.52,3.13.28,4.42-.63l15.46-11c1.94-1.38,4.56-1.34,6.46.09l4.43,3.35,10.68,8.08c1,.75,2.29.99,3.49.65l11.47-3.28.89-16.95-7.01-19.11-12.68-11.98-9.75-.57h-8.03s-9.75.57-9.75.57l-12.17,10.83Z"/>
        <g class="cls-17">
          <polyline class="cls-4" points="20.9 83.84 47.02 75.05 46.13 109.84 20.9 83.84"/>
          <polyline class="cls-4" points="73.27 84.99 47.02 75.05 46.13 109.84 73.27 84.99"/>
          <polygon class="cls-5" points="63.97 92.51 53.75 115.6 64.99 100.54 71.23 99.9 71.23 101.3 80.28 104.1 73.27 84.99 63.97 92.51"/>
          <polygon class="cls-6" points="68.43 108.33 71.23 101.3 80.13 103.93 68.43 108.33"/>
          <polygon class="cls-12" points="57.34 111 64.99 100.54 71.15 100.39 68.43 108.33 57.34 111"/>
          <polygon class="cls-5" points="29.94 92.39 38.34 116.2 28.3 100.31 22.13 99.19 22.02 100.59 12.78 102.69 21.25 84.17 29.94 92.39"/>
          <polygon class="cls-6" points="24.27 107.81 22.02 100.59 12.94 102.52 24.27 107.81"/>
          <polygon class="cls-12" points="35.12 111.33 28.3 100.31 22.17 99.69 24.27 107.81 35.12 111.33"/>
          <polygon class="cls-5" points="46.51 75.56 29.94 92.39 21.25 84.17 47.02 75.05 46.51 75.56"/>
          <polygon class="cls-5" points="48.19 75.6 64 93.14 73.04 85.31 47.7 75.06 48.19 75.6"/>
          <polyline class="cls-3" points="46.13 109.84 30.42 93.67 47.02 75.75 46.13 109.84"/>
          <polygon class="cls-3" points="63.22 94.19 47.02 75.75 46.13 109.84 63.22 94.19"/>
        </g>
      </g>
      <g>
        <polygon class="cls-14" points="23.32 81.61 3.06 34.69 0 13 4.97 0 16.25 3.25 30.1 23.22 42.81 72.44 33.07 73.01 23.32 81.61"/>
        <g class="cls-16">
          <polyline class="cls-7" points="42.81 72.44 33.07 73.01 31.44 66.29 29.82 22.94 42.81 72.44"/>
          <polygon class="cls-9" points="33.26 73.78 3.63 34.98 27.14 47.69 33.26 73.78"/>
          <polygon class="cls-1" points="1.05 13.19 3.25 34.79 27.14 47.69 1.05 13.19"/>
          <polygon class="cls-13" points="5.64 .48 1.05 13.19 27.14 47.69 5.64 .48"/>
          <polygon class="cls-11" points="5.64 .48 16.37 3.52 27.07 47.64 5.64 .48"/>
          <polygon class="cls-8" points="31.47 66.71 29.82 22.94 16.35 3.51 27.01 47.53 31.47 66.71"/>
        </g>
      </g>
      <g>
        <polygon class="cls-14" points="70.1 82.01 90.6 34.69 93.66 13 88.69 0 77.41 3.25 63.55 23.22 50.84 72.44 60.59 73.01 70.1 82.01"/>
        <g class="cls-15">
          <polyline class="cls-7" points="50.84 72.44 60.59 73.01 62.21 66.29 63.84 22.94 50.84 72.44"/>
          <polygon class="cls-9" points="60.4 73.78 90.02 34.98 66.51 47.69 60.4 73.78"/>
          <polygon class="cls-1" points="92.6 13.19 90.41 34.79 66.51 47.69 92.6 13.19"/>
          <polygon class="cls-13" points="88.02 .48 92.6 13.19 66.51 47.69 88.02 .48"/>
          <polygon class="cls-11" points="88.02 .48 77.29 3.52 66.59 47.64 88.02 .48"/>
          <polygon class="cls-8" points="62.18 66.71 63.84 22.94 77.3 3.51 66.64 47.53 62.18 66.71"/>
        </g>
      </g>
    </g>
  </g>
</svg>